<svg xmlns="http://www.w3.org/2000/svg" width="32" height="32" viewBox="0 0 32 32" fill="none">
  <defs>
    <linearGradient id="bg" x1="0" y1="0" x2="32" y2="32" gradientUnits="userSpaceOnUse">
      <stop offset="0" stop-color="#101850"/>
      <stop offset="0.45" stop-color="#1E2B6E"/>
      <stop offset="1" stop-color="#2E1E74"/>
    </linearGradient>
    <linearGradient id="mem" x1="4" y1="4" x2="28" y2="28" gradientUnits="userSpaceOnUse">
      <stop offset="0" stop-color="#5EAEF7"/>
      <stop offset="0.5" stop-color="#8B8DF8"/>
      <stop offset="1" stop-color="#B38BFA"/>
    </linearGradient>
    <linearGradient id="arm" x1="6" y1="6" x2="26" y2="26" gradientUnits="userSpaceOnUse">
      <stop offset="0" stop-color="#7CB6FA"/>
      <stop offset="1" stop-color="#B38BFA"/>
    </linearGradient>
  </defs>
  <rect width="32" height="32" rx="6" fill="url(#bg)"/>
  <!-- Membrane ring -->
  <ellipse cx="16" cy="16.5" rx="12" ry="12.5" stroke="url(#mem)" stroke-width="1.2" fill="none" opacity="0.7"/>
  <!-- Hex scaffold (simplified) -->
  <polygon points="16,9 21,12.5 21,19.5 16,23 11,19.5 11,12.5" stroke="url(#arm)" stroke-width="0.9" fill="none" opacity="0.45" stroke-linejoin="round"/>
  <!-- Arms -->
  <path d="M16 14 C14 11 14 8 16 5" stroke="url(#arm)" stroke-width="1.6" stroke-linecap="round" opacity="0.9"/>
  <path d="M17.5 15 C20 13 23 10 26 9" stroke="url(#arm)" stroke-width="1.6" stroke-linecap="round" opacity="0.9"/>
  <path d="M17.5 18 C20 20 23 22 26 24" stroke="url(#arm)" stroke-width="1.6" stroke-linecap="round" opacity="0.9"/>
  <path d="M16 19 C18 22 18 25 16 28" stroke="url(#arm)" stroke-width="1.6" stroke-linecap="round" opacity="0.9"/>
  <path d="M14.5 18 C12 20 9 22 6 24" stroke="url(#arm)" stroke-width="1.6" stroke-linecap="round" opacity="0.9"/>
  <path d="M14.5 15 C12 13 9 10 6 9" stroke="url(#arm)" stroke-width="1.6" stroke-linecap="round" opacity="0.9"/>
  <!-- Endpoints -->
  <circle cx="16" cy="5" r="2" fill="white" opacity="0.95"/>
  <circle cx="26" cy="9" r="1.8" fill="white" opacity="0.95"/>
  <circle cx="26" cy="24" r="1.8" fill="white" opacity="0.95"/>
  <circle cx="16" cy="28" r="1.8" fill="white" opacity="0.95"/>
  <circle cx="6" cy="24" r="1.8" fill="white" opacity="0.95"/>
  <circle cx="6" cy="9" r="1.8" fill="white" opacity="0.95"/>
  <!-- Center nucleus -->
  <circle cx="16" cy="16.5" r="4" fill="white" opacity="0.9"/>
</svg>
